<?xml version="1.0" standalone="no"?>
<!DOCTYPE svg PUBLIC "-//W3C//DTD SVG 20010904//EN"
 "http://www.w3.org/TR/2001/REC-SVG-20010904/DTD/svg10.dtd">
<svg version="1.0" xmlns="http://www.w3.org/2000/svg"
 width="2501.000000pt" height="2501.000000pt" viewBox="0 0 2501.000000 2501.000000"
 preserveAspectRatio="xMidYMid meet">

<g transform="translate(0.000000,2501.000000) scale(0.100000,-0.100000)"
fill="#000000" stroke="none">
<path d="M11950 24994 c-256 -14 -570 -39 -770 -60 -1946 -206 -3803 -861
-5453 -1925 -546 -353 -1089 -769 -1605 -1232 -201 -180 -706 -685 -889 -889
-1007 -1121 -1781 -2359 -2331 -3730 -428 -1065 -705 -2179 -826 -3328 -54
-504 -61 -660 -61 -1330 0 -670 7 -826 61 -1330 205 -1946 861 -3803 1925
-5453 353 -546 770 -1091 1229 -1602 185 -206 689 -710 895 -895 1120 -1005
2357 -1778 3727 -2328 1065 -428 2179 -705 3328 -826 504 -54 660 -61 1330
-61 670 0 826 7 1330 61 1946 205 3803 861 5453 1925 546 353 1091 770 1602
1229 206 185 710 689 895 895 1005 1120 1778 2357 2328 3727 428 1065 705
2179 826 3328 54 504 61 660 61 1330 0 670 -7 826 -61 1330 -205 1946 -861
3803 -1925 5453 -353 547 -772 1093 -1229 1602 -186 207 -690 711 -892 892
-1126 1010 -2359 1781 -3730 2331 -1203 484 -2431 765 -3783 868 -197 15
-1249 28 -1435 18z m1010 -5475 c1476 -90 2911 -662 4050 -1615 1883 -1575
2803 -3964 2464 -6399 -101 -724 -338 -1484 -669 -2146 -887 -1769 -2467
-3079 -4375 -3628 -1042 -299 -2209 -345 -3291 -131 -2856 566 -5082 2857
-5564 5724 -69 411 -96 742 -96 1176 0 434 27 765 96 1176 297 1769 1280 3379
2719 4453 1354 1011 2973 1494 4666 1390z"/>
</g>
</svg>
